<svg width="218" height="113" viewBox="0 0 218 113" fill="none" xmlns="http://www.w3.org/2000/svg">
<path d="M19.9703 45H11.3303V18.12H1.25031V11.4H30.0503V18.12H19.9703V45ZM41.5609 45H32.2009L44.9209 11.4H54.5209L67.2409 45H57.8809L55.7209 39H43.7209L41.5609 45ZM45.8809 32.76H53.5609L49.7209 21.48L45.8809 32.76ZM75.1591 11.4H95.3191C98.6791 11.4 101.111 12.168 102.615 13.704C104.151 15.208 104.919 17.64 104.919 21V25.32C104.919 27.976 104.471 30.04 103.575 31.512C102.711 32.984 101.319 33.96 99.3991 34.44L105.399 45H96.0391L90.5191 34.92H83.7991V45H75.1591V11.4ZM96.2791 21C96.2791 19.08 95.3191 18.12 93.3991 18.12H83.7991V28.2H93.3991C95.3191 28.2 96.2791 27.24 96.2791 25.32V21ZM144.026 44.28C136.538 45.08 129.658 45.48 123.386 45.48C120.25 45.48 117.946 44.744 116.474 43.272C115.002 41.8 114.266 39.496 114.266 36.36V21C114.266 17.64 115.018 15.208 116.522 13.704C118.058 12.168 120.506 11.4 123.866 11.4H141.146V18.12H125.786C123.866 18.12 122.906 19.08 122.906 21V36.36C122.906 37.096 123.114 37.688 123.53 38.136C123.978 38.552 124.57 38.76 125.306 38.76C128.986 38.76 132.346 38.68 135.386 38.52V31.56H129.146V25.8H144.026V44.28ZM180.995 45H154.355V11.4H180.995V18.12H162.995V24.6H177.155V31.32H162.995V38.28H180.995V45ZM206.664 45H198.024V18.12H187.944V11.4H216.744V18.12H206.664V45ZM19.4519 94H10.8119V67.12H0.731877V60.4H29.5319V67.12H19.4519V94ZM67.4575 69.52C67.4575 67.6 66.4975 66.64 64.5775 66.64H56.4175C54.4975 66.64 53.5375 67.6 53.5375 69.52V84.88C53.5375 86.8 54.4975 87.76 56.4175 87.76H64.5775C66.4975 87.76 67.4575 86.8 67.4575 84.88V69.52ZM76.0975 84.88C76.0975 88.24 75.3295 90.688 73.7935 92.224C72.2895 93.728 69.8575 94.48 66.4975 94.48H54.4975C51.1375 94.48 48.6895 93.728 47.1535 92.224C45.6495 90.688 44.8975 88.24 44.8975 84.88V69.52C44.8975 66.16 45.6495 63.728 47.1535 62.224C48.6895 60.688 51.1375 59.92 54.4975 59.92H66.4975C69.8575 59.92 72.2895 60.688 73.7935 62.224C75.3295 63.728 76.0975 66.16 76.0975 69.52V84.88ZM115.48 60.4H124.12V84.88C124.12 88.24 123.352 90.688 121.816 92.224C120.312 93.728 117.88 94.48 114.52 94.48H103.48C100.12 94.48 97.672 93.728 96.136 92.224C94.632 90.688 93.88 88.24 93.88 84.88V60.4H102.52V84.88C102.52 86.8 103.48 87.76 105.4 87.76H112.6C114.52 87.76 115.48 86.8 115.48 84.88V60.4ZM168.76 93.52C161.624 94.16 155.704 94.48 151 94.48C147.864 94.48 145.56 93.744 144.088 92.272C142.616 90.8 141.88 88.496 141.88 85.36V70C141.88 66.64 142.632 64.208 144.136 62.704C145.672 61.168 148.12 60.4 151.48 60.4H168.76V67.12H153.4C151.48 67.12 150.52 68.08 150.52 70V85.36C150.52 86.096 150.728 86.688 151.144 87.136C151.592 87.552 152.152 87.76 152.824 87.76C153.496 87.76 154.232 87.76 155.032 87.76C155.832 87.728 156.664 87.696 157.528 87.664C158.392 87.632 159.256 87.6 160.12 87.568C161.016 87.536 162.152 87.472 163.528 87.376C164.936 87.28 166.68 87.168 168.76 87.04V93.52ZM214.846 94H206.206V80.32H194.206V94H185.566V60.4H194.206V73.6H206.206V60.4H214.846V94Z" fill="white"/>
<rect x="1" y="103" width="217" height="10" fill="white"/>
</svg>
